<svg width="683" height="683" viewBox="0 0 683 683" fill="none" xmlns="http://www.w3.org/2000/svg">
<path d="M414 88.6666C402.933 91.0666 390.267 97.0666 380.667 104.4C376.267 107.733 348.533 134.667 319.067 164.267L265.333 218L369.333 322L473.333 426L507.067 392C589.867 308.267 589.733 308.4 595.733 296C602.133 282.533 604.4 272.533 604.267 257.733C604.267 240.267 599.333 224.667 589.2 209.733C584.267 202.4 504.4 121.333 489.333 108.4C468 90 440.533 82.8 414 88.6666Z" fill="#3F6C4B"/>
<path d="M209.2 274.4C186.267 298.267 179.067 312.667 177.733 337.467C176.8 353.733 179.467 366.667 186.933 381.733C192.133 392.267 194.267 394.533 245.867 446.133C303.733 503.867 304.4 504.4 325.333 510.8C332.933 513.067 338.533 513.867 348.667 513.733C375.6 513.733 392 506.133 416.4 482.533L432.667 466.8L328.533 362.667L224.533 258.533L209.2 274.4Z" fill="#3F6C4B"/>
<path d="M132.667 428.267C123.2 431.6 115.867 440.533 114 450.933C112.533 459.067 116.267 469.333 123.2 475.733C137.333 488.8 158.4 485.2 167.067 468.133C173.067 456.133 171.467 444.933 162.267 435.467C154.533 427.333 143.067 424.533 132.667 428.267Z" fill="#3F6C4B"/>
<path d="M218 513.6C208.8 516.933 201.467 525.6 199.333 535.733C197.867 543.067 201.067 553.067 207.067 559.6C220.533 574.267 244.4 570.8 252.667 552.933C258.267 541.067 256.533 530 247.6 520.8C239.867 512.667 228.4 509.867 218 513.6Z" fill="#3F6C4B"/>
<path d="M104.933 541.867C84.5333 549.2 78.6666 574.133 94.1333 588.933C103.333 597.867 114.4 599.6 126.267 594C134.267 590.4 140.533 582 142 573.333C144.133 560.4 134.933 545.867 122 541.867C114.267 539.6 111.467 539.6 104.933 541.867Z" fill="#3F6C4B"/>
</svg>
