<svg width="38" height="39" viewBox="0 0 38 39" fill="none" xmlns="http://www.w3.org/2000/svg">
<path d="M36.4015 0.289735C36.1057 0.418683 35.7795 0.797942 35.5747 1.24547C35.4457 1.51853 35.4154 1.7385 35.4154 2.38324C35.4154 2.82318 35.4457 3.27071 35.4761 3.39207C35.5292 3.58929 35.5216 3.59687 35.3244 3.54378C35.203 3.51344 34.7555 3.4831 34.3156 3.4831C33.6632 3.4831 33.4584 3.51344 33.1702 3.64997C32.0172 4.17335 31.547 5.34905 31.858 6.93435L31.8959 7.12398H30.8871C29.9313 7.12398 29.8555 7.13915 29.4459 7.33637C28.9832 7.56392 28.6494 7.89767 28.3839 8.39829C28.2247 8.68653 28.2095 8.82306 28.2095 9.76363V10.8104L27.9516 10.7649C27.5496 10.689 26.5559 10.7042 26.2298 10.7952C25.5016 10.9924 24.8644 11.6144 24.6444 12.3426C24.5231 12.7598 24.5003 13.6093 24.5989 14.1251C24.6596 14.4361 24.652 14.4513 24.5003 14.4133C23.9845 14.292 23.1729 14.2844 22.7102 14.3982C21.8531 14.6181 21.3449 15.0808 21.2918 15.7104C21.2539 16.1731 21.4435 16.5448 21.8455 16.7723C22.2324 16.9999 22.5054 16.9923 22.9985 16.742C23.3929 16.5448 23.4156 16.5372 23.9466 16.6358C25.4485 16.9013 25.7595 16.9013 26.2904 16.6282C26.4497 16.5524 26.6697 16.3476 26.7835 16.1731C27.049 15.7787 27.0945 15.1188 26.9276 14.2237C26.7759 13.4121 26.7683 13.0101 26.92 12.957C26.9807 12.9266 27.4661 12.9873 27.9895 13.0784C29.0363 13.268 29.4307 13.2528 29.9086 13.0025C30.3864 12.7598 30.6747 12.2288 30.6747 11.6068C30.6747 11.4324 30.6064 10.9014 30.5154 10.4311C30.4319 9.96084 30.3788 9.52849 30.4016 9.4678C30.4547 9.32369 30.9629 9.33127 31.7063 9.48297C32.8971 9.73329 33.7467 9.50573 34.0804 8.84582C34.3156 8.38312 34.3383 8.00386 34.1942 7.19225C34.1183 6.77506 34.0577 6.28961 34.0501 6.09998C34.0501 5.76624 34.0577 5.75865 34.3004 5.73589C34.4369 5.72072 34.8086 5.76624 35.1196 5.82692C36.9021 6.19859 37.8047 5.75106 37.8654 4.46917C37.8806 4.17335 37.8427 3.64238 37.7744 3.28588C37.6151 2.42876 37.6227 2.19361 37.8199 1.92813C38.0399 1.62473 38.0475 1.0255 37.8351 0.737261C37.471 0.259395 36.8793 0.0697651 36.4015 0.289735Z" fill="#00BC89"/>
<path d="M20.958 1.19241C20.7987 1.2986 20.647 1.5034 20.556 1.72337C20.4271 2.03437 20.4195 2.12539 20.4953 2.44397C20.6774 3.14939 20.7381 4.05961 20.6622 4.86364C20.4422 6.99507 19.6003 8.74725 17.8253 10.7118C17.2868 11.3035 17.2109 11.4779 17.2716 11.9558C17.3247 12.373 17.5371 12.6309 17.9467 12.8053C18.5384 13.048 18.7659 12.957 19.5624 12.1378C21.9441 9.6954 23.2184 6.35792 22.9378 3.33143C22.8467 2.39846 22.7102 1.78406 22.5206 1.5034C22.202 1.01795 21.4435 0.866249 20.958 1.19241Z" fill="#00BC89"/>
<path d="M26.9806 3.4525C26.0021 3.6573 25.7745 4.96954 26.6241 5.5005C27.0792 5.78115 27.815 5.63703 28.1259 5.21226C28.3535 4.90886 28.3763 4.2717 28.1866 3.96071C27.9287 3.54352 27.4584 3.34631 26.9806 3.4525Z" fill="#00BC89"/>
<path d="M15.3449 5.21252C14.4119 5.8345 14.8443 7.25293 15.9593 7.25293C16.5661 7.25293 17.006 6.85092 17.0743 6.2441C17.135 5.58419 16.6344 5.03806 15.9593 5.03806C15.7166 5.03806 15.5193 5.09115 15.3449 5.21252Z" fill="#00BC89"/>
<path d="M11.4841 11.7583C11.2111 12.3954 10.8091 13.6015 10.6118 14.36C9.23892 19.8365 10.4601 25.5406 13.9797 30.0689C14.5182 30.7667 15.8835 32.17 16.589 32.7616L17.0289 33.1257L18.7128 32.4962C19.6382 32.1548 20.6622 31.768 20.9884 31.6466L21.5724 31.4191L21.1401 30.9564C19.0693 28.7112 17.3323 25.5254 16.5283 22.4686C16.0125 20.504 15.747 18.2284 15.838 16.5294L15.8835 15.6191L13.7673 13.5029L11.6434 11.379L11.4841 11.7583Z" fill="#00BC89"/>
<path d="M35.0361 11.4854C34.4976 11.5991 34.1487 12.0315 34.1487 12.5852C34.1487 13.2375 34.6114 13.6851 35.2713 13.6851C35.9312 13.6851 36.3636 13.2451 36.3636 12.5852C36.3636 11.8494 35.7416 11.3337 35.0361 11.4854Z" fill="#00BC89"/>
<path d="M33.5569 16.0821C31.8958 16.393 31.1221 16.6434 29.9085 17.2578C28.9072 17.766 27.9818 18.4107 27.0109 19.2602C26.2676 19.9126 26.1083 20.1553 26.1083 20.6332C26.1083 21.2779 26.571 21.7406 27.2157 21.7406C27.6481 21.7406 27.7543 21.6723 28.4824 21.0048C29.5899 19.9884 31.0386 19.1161 32.3357 18.6989C33.5569 18.3045 35.074 18.1983 36.2952 18.4335C37.0537 18.5776 37.2433 18.5472 37.615 18.2287C38.1232 17.7811 38.1308 17.0302 37.6226 16.5827C37.2282 16.2338 36.5 16.0896 34.9981 16.0669C34.3079 16.0593 33.6631 16.0669 33.5569 16.0821Z" fill="#00BC89"/>
<path d="M5.99235 21.6269L4.18707 26.451L4.27809 26.8758C4.68011 28.6963 6.13646 31.571 7.57006 33.3687C8.09344 34.0211 9.80769 35.7581 9.92905 35.7581C10.0277 35.7581 14.4498 34.1121 14.5105 34.0514C14.5257 34.0286 14.1312 33.5963 13.6382 33.0805C12.6066 32.0337 11.9998 31.2904 11.2565 30.1829C9.54221 27.6192 8.46511 24.8278 7.98725 21.7179C7.84313 20.8152 7.81279 20.2919 7.81279 18.7066C7.8052 17.6598 7.8052 16.7951 7.8052 16.7951C7.8052 16.7951 6.99359 18.9645 5.99235 21.6269Z" fill="#00BC89"/>
<path d="M18.1288 18.4029C18.4473 22.059 19.6306 25.26 21.6862 28.0134C22.293 28.825 23.6204 30.3269 23.8404 30.4482C23.9542 30.5013 24.3562 30.3799 25.6684 29.8869C26.609 29.538 27.4737 29.1663 27.6102 29.0525C27.7771 28.9236 27.8909 28.7415 27.9516 28.5367C28.1336 27.8541 28.3005 28.0513 23.0288 22.7644C20.374 20.1096 18.1743 17.9327 18.1439 17.9327C18.1136 17.9327 18.106 18.1451 18.1288 18.4029Z" fill="#00BC89"/>
<path d="M33.2156 22.8176C32.9198 22.9465 32.6012 23.3258 32.533 23.614C32.3661 24.365 33.1701 25.1386 33.9135 24.949C34.9147 24.6987 35.0816 23.303 34.1638 22.8479C33.8528 22.6886 33.5342 22.681 33.2156 22.8176Z" fill="#00BC89"/>
<path d="M1.43372 33.7706C0.341454 36.6909 -0.0074646 37.6922 0.000120578 37.9425C0.00770576 38.4659 0.440061 38.921 0.986194 38.9968C1.23651 39.0272 1.75988 38.8527 4.35401 37.8818C6.04551 37.2522 7.44118 36.7213 7.45635 36.7061C7.47152 36.6909 7.16812 36.3269 6.78127 35.8945C5.31733 34.2713 4.32367 32.8073 3.42862 30.9945C3.14039 30.4028 2.89766 29.9174 2.89007 29.9174C2.88249 29.9174 2.23016 31.6544 1.43372 33.7706Z" fill="#00BC89"/>
</svg>
