<svg width="100" height="100" viewBox="0 0 100 100" fill="none" xmlns="http://www.w3.org/2000/svg">
<path fill-rule="evenodd" clip-rule="evenodd" d="M26.2708 22.0834C22.0712 22.0834 18.6667 25.4879 18.6667 29.6875V70.3125C18.6667 74.5122 22.0712 77.9167 26.2708 77.9167H85.6458C89.8455 77.9167 93.25 74.5122 93.25 70.3125V29.6875C93.25 25.4879 89.8455 22.0834 85.6458 22.0834H26.2708ZM12 29.6875C12 21.806 18.3893 15.4167 26.2708 15.4167H85.6458C93.5274 15.4167 99.9167 21.806 99.9167 29.6875V70.3125C99.9167 78.1941 93.5274 84.5834 85.6458 84.5834H26.2708C18.3893 84.5834 12 78.1941 12 70.3125V29.6875Z" fill="white"/>
<path fill-rule="evenodd" clip-rule="evenodd" d="M96.5834 40.8334H15.3334V34.1667H96.5834V40.8334ZM27.625 58.5938C27.625 56.7528 29.1174 55.2604 30.9584 55.2604H40.3334C42.1743 55.2604 43.6667 56.7528 43.6667 58.5938V62.5C43.6667 64.341 42.1743 65.8334 40.3334 65.8334H30.9584C29.1174 65.8334 27.625 64.341 27.625 62.5V58.5938Z" fill="white"/>
</svg>
