<svg width="100" height="100" viewBox="0 0 100 100" fill="none" xmlns="http://www.w3.org/2000/svg">
<g clip-path="url(#clip0_795_1573)">
<path fill-rule="evenodd" clip-rule="evenodd" d="M52.4169 34.375C43.7876 34.375 36.7919 41.3707 36.7919 50C36.7919 58.6293 43.7876 65.625 52.4169 65.625C59.976 65.625 66.2815 60.2569 67.7293 53.125H52.4169C50.691 53.125 49.2919 51.7259 49.2919 50C49.2919 48.2741 50.691 46.875 52.4169 46.875H71.1669C72.8928 46.875 74.2919 48.2741 74.2919 50C74.2919 62.0811 64.498 71.875 52.4169 71.875C40.3358 71.875 30.5419 62.0811 30.5419 50C30.5419 37.9189 40.3358 28.125 52.4169 28.125C58.4567 28.125 63.9296 30.5772 67.8847 34.5318C69.1052 35.7521 69.1054 37.7307 67.8851 38.9512C66.6648 40.1717 64.6861 40.1718 63.4657 38.9515C60.6344 36.1207 56.7323 34.375 52.4169 34.375Z" fill="white"/>
<path d="M84.3516 34.6689C83.9924 33.9219 83.3512 33.3482 82.5691 33.074C81.787 32.7998 80.9279 32.8475 80.181 33.2067C79.434 33.5658 78.8603 34.207 78.5861 34.9891C78.3119 35.7712 78.3596 36.6303 78.7187 37.3772L84.3516 34.6689ZM78.7187 62.6225C78.3595 63.3695 78.3118 64.2286 78.5859 65.0107C78.8601 65.7929 79.4338 66.4342 80.1807 66.7934C80.9277 67.1526 81.7867 67.2004 82.5689 66.9262C83.3511 66.652 83.9923 66.0783 84.3516 65.3314L78.7187 62.6225ZM70.25 26.9184C70.5743 27.1725 70.9456 27.3601 71.3426 27.4702C71.7396 27.5803 72.1545 27.6109 72.5634 27.56C72.9723 27.5092 73.367 27.378 73.725 27.174C74.083 26.97 74.3971 26.6973 74.6493 26.3714C74.9014 26.0456 75.0866 25.6731 75.1943 25.2754C75.302 24.8777 75.3299 24.4626 75.2765 24.0541C75.2232 23.6455 75.0895 23.2516 74.8833 22.8949C74.6771 22.5382 74.4024 22.2258 74.075 21.9757L70.25 26.9184ZM74.075 78.0246C74.7246 77.5154 75.1464 76.7698 75.2483 75.9507C75.3501 75.1316 75.1237 74.3054 74.6185 73.6526C74.1134 72.9998 73.3704 72.5734 72.5519 72.4665C71.7335 72.3596 70.9059 72.5808 70.25 73.0819L74.075 78.0246ZM52.4167 79.1668C36.3083 79.1668 23.25 66.1085 23.25 50.0001H17C17 69.56 32.8568 85.4168 52.4167 85.4168V79.1668ZM23.25 50.0001C23.25 33.8918 36.3083 20.8335 52.4167 20.8335V14.5835C32.8568 14.5835 17 30.4402 17 50.0001H23.25ZM78.7187 37.3772C80.5536 41.1923 81.5833 45.472 81.5833 50.0001H87.8333C87.8333 44.5147 86.5838 39.3116 84.3516 34.6689L78.7187 37.3772ZM81.5833 50.0001C81.5833 54.5283 80.5536 58.8069 78.7187 62.6225L84.3516 65.3314C86.5838 60.6887 87.8333 55.4856 87.8333 50.0001H81.5833ZM52.4167 20.8335C59.137 20.8335 65.3187 23.1027 70.25 26.9184L74.075 21.9757C67.8776 17.1733 60.257 14.5723 52.4167 14.5835V20.8335ZM70.25 73.0819C65.3187 76.8975 59.137 79.1668 52.4167 79.1668V85.4168C60.257 85.4279 67.8776 82.827 74.075 78.0246L70.25 73.0819Z" fill="white"/>
<path fill-rule="evenodd" clip-rule="evenodd" d="M91.4529 27.796C93.0084 27.0481 94.8756 27.7028 95.6235 29.2582C98.6431 35.5382 100.334 42.5762 100.334 49.9999C100.334 57.4235 98.6431 64.4615 95.6234 70.7411C94.8755 72.2965 93.0083 72.9511 91.4528 72.2031C89.8974 71.4552 89.2429 69.588 89.9908 68.0326C92.6128 62.5799 94.0837 56.4658 94.0837 49.9999C94.0837 43.5339 92.6128 37.4198 89.9908 31.9665C89.2429 30.4111 89.8975 28.5439 91.4529 27.796Z" fill="white"/>
</g>
<defs>
<clipPath id="clip0_795_1573">
<rect width="100" height="100" fill="white"/>
</clipPath>
</defs>
</svg>
