<svg width="100" height="100" viewBox="0 0 100 100" fill="none" xmlns="http://www.w3.org/2000/svg">
<g clip-path="url(#clip0_795_1569)">
<path fill-rule="evenodd" clip-rule="evenodd" d="M25.5 31.25C22.0482 31.25 19.25 34.0482 19.25 37.5V75C19.25 78.4518 22.0482 81.25 25.5 81.25H88C91.4518 81.25 94.25 78.4518 94.25 75V37.5C94.25 34.0482 91.4518 31.25 88 31.25H25.5ZM13 37.5C13 30.5964 18.5964 25 25.5 25H88C94.9036 25 100.5 30.5964 100.5 37.5V75C100.5 81.9036 94.9036 87.5 88 87.5H25.5C18.5964 87.5 13 81.9036 13 75V37.5Z" fill="white"/>
<path fill-rule="evenodd" clip-rule="evenodd" d="M74.9466 9.60014C76.8001 9.2517 78.7076 9.31421 80.5346 9.7834C82.372 10.2553 84.0825 11.1268 85.5442 12.3359C87.0059 13.545 88.1828 15.0617 88.9908 16.778C89.7989 18.4943 90.2181 20.3677 90.2187 22.2647V28.1251H83.9687V22.2667C83.9687 22.2664 83.9687 22.2661 83.9687 22.2657C83.9683 21.2888 83.7523 20.3241 83.3362 19.4402C82.9199 18.5561 82.3137 17.7747 81.5607 17.1519C80.8076 16.529 79.9265 16.08 78.9799 15.837C78.0334 15.5939 77.0449 15.5627 76.085 15.7456C76.0653 15.7494 76.0455 15.753 76.0258 15.7563L24.6208 24.5301C23.1125 24.8239 21.7525 25.6318 20.7729 26.8165C19.7875 28.0082 19.249 29.5064 19.25 31.0527L19.25 40.6251H13V31.0557C13 31.0554 13 31.0551 13 31.0548C12.9985 28.0539 14.0439 25.1465 15.9562 22.8338C17.8689 20.5206 20.529 18.9473 23.4775 18.3854C23.4972 18.3817 23.517 18.3781 23.5367 18.3747L74.9466 9.60014Z" fill="white"/>
<path d="M78.625 62.5C77.3889 62.5 76.1805 62.1334 75.1527 61.4467C74.1249 60.7599 73.3238 59.7838 72.8508 58.6418C72.3777 57.4997 72.2539 56.2431 72.4951 55.0307C72.7363 53.8183 73.3315 52.7047 74.2056 51.8306C75.0797 50.9565 76.1933 50.3613 77.4057 50.1201C78.6181 49.8789 79.8747 50.0027 81.0168 50.4758C82.1588 50.9488 83.1349 51.7499 83.8217 52.7777C84.5084 53.8055 84.875 55.0139 84.875 56.25C84.875 57.9076 84.2165 59.4973 83.0444 60.6694C81.8723 61.8415 80.2826 62.5 78.625 62.5Z" fill="white"/>
</g>
<defs>
<clipPath id="clip0_795_1569">
<rect width="100" height="100" fill="white"/>
</clipPath>
</defs>
</svg>
